<?xml version="1.0" encoding="UTF-8"?>
<!-- Generator: visioncortex VTracer 0.6.12 -->
<svg viewBox="0 0 1400.0000 1000.0000" version="1.1" xmlns="http://www.w3.org/2000/svg" width="700.0000" height="500.0000">
<path d="M0 0 C5.28 0 10.56 0 16 0 C16 0.66 16 1.32 16 2 C14.35 2.33 12.7 2.66 11 3 C10.67 8.61 10.34 14.22 10 20 C9.34 20 8.68 20 8 20 C7.67 14.39 7.34 8.78 7 3 C4.69 2.67 2.38 2.34 0 2 C0 1.34 0 0.68 0 0 Z " fill="#000000" transform="translate(130,82)"/>
<path d="M0 0 C4.62 0 9.24 0 14 0 C14 2.64 14 5.28 14 8 C13.34 8 12.68 8 12 8 C11.34 9.98 10.68 11.96 10 14 C9.34 14 8.68 14 8 14 C7.67 13.01 7.34 12.02 7 11 C5.68 11 4.36 11 3 11 C2.67 13.97 2.34 16.94 2 20 C1.34 20 0.68 20 0 20 C0 13.4 0 6.8 0 0 Z M3 2 C2.61781233 3.65614657 2.28604898 5.32457024 2 7 C3 8 3 8 5.06640625 8.09765625 C5.89011719 8.08605469 6.71382812 8.07445313 7.5625 8.0625 C7.97564453 8.05798828 7.97564453 8.05798828 10.06640625 8.03515625 C10.38544922 8.02935547 10.38544922 8.02935547 12 8 C12.042721 6.33388095 12.04063832 4.66617115 12 3 C11 2 11 2 9.15234375 1.90234375 C8.42144531 1.91394531 7.69054687 1.92554687 6.9375 1.9375 C6.57076172 1.94201172 6.57076172 1.94201172 4.71484375 1.96484375 C4.14894531 1.97644531 3.58304688 1.98804687 3 2 Z " fill="#000000" transform="translate(148,82)"/>
<path d="M0 0 C0.66 0 1.32 0 2 0 C2 1.32 2 2.64 2 4 C1.34 4 0.68 4 0 4 C0 2.68 0 1.36 0 0 Z " fill="#000000" transform="translate(172,82)"/>
<path d="M0 0 C0.66 0.33 0.66 0.33 4 2 C4 3.32 4 4.64 4 6 C3.34 6 2.68 6 2 6 C2 10.62 2 15.24 2 20 C1.34 20 0.68 20 0 20 C0 13.4 0 6.8 0 0 Z " fill="#000000" transform="translate(184,82)"/>
<path d="M0 0 C0.66 0 1.32 0 2 0 C2 6.6 2 13.2 2 20 C0.68 19.34 -0.64 18.68 -2 18 C-2 16.68 -2 15.36 -2 14 C-1.34 14 -0.68 14 0 14 C0 9.38 0 4.76 0 0 Z " fill="#000000" transform="translate(196,82)"/>
<path d="M0 0 C3.3 0 6.6 0 10 0 C10 0.66 10 1.32 10 2 C6.7 2 3.4 2 0 2 C0 1.34 0 0.68 0 0 Z " fill="#000000" transform="translate(204,82)"/>
<path d="M0 0 C4.62 0 9.24 0 14 0 C14 0.66 14 1.32 14 2 C10.37 2.33 6.74 2.66 3 3 C3 4.32 3 5.64 3 7 C5.31 7.33 7.62 7.66 10 8 C10 8.66 10 9.32 10 10 C7.69 10.33 5.38 10.66 3 11 C2.67 13.97 2.34 16.94 2 20 C1.34 20 0.68 20 0 20 C0 13.4 0 6.8 0 0 Z " fill="#000000" transform="translate(220,82)"/>
<path d="M0 0 C2.64 0 5.28 0 8 0 C8 0.66 8 1.32 8 2 C5.36 2 2.72 2 0 2 C0 1.34 0 0.68 0 0 Z " fill="#000000" transform="translate(240,82)"/>
<path d="M0 0 C4.62 0 9.24 0 14 0 C14 0.66 14 1.32 14 2 C10.37 2.33 6.74 2.66 3 3 C3 4.32 3 5.64 3 7 C4.27071376 7.0271649 5.541597 7.04647059 6.8125 7.0625 C7.52019531 7.07410156 8.22789062 7.08570312 8.95703125 7.09765625 C10.85800948 7.00678731 12.24562333 6.70285753 14 6 C13.48266848 8.7344666 12.96347741 11.38484702 12 14 C11.34 14 10.68 14 10 14 C9.67 13.01 9.34 12.02 9 11 C7.02 11 5.04 11 3 11 C2.67 13.97 2.34 16.94 2 20 C1.34 20 0.68 20 0 20 C0 13.4 0 6.8 0 0 Z " fill="#000000" transform="translate(256,82)"/>
<path d="M0 0 C0.66 0 1.32 0 2 0 C4.16009009 3.5101464 4.18192509 5.99764799 4 10 C3.34 10 2.68 10 2 10 C2 13.3 2 16.6 2 20 C1.34 20 0.68 20 0 20 C0 13.4 0 6.8 0 0 Z " fill="#000000" transform="translate(276,82)"/>
<path d="M0 0 C0.66 0 1.32 0 2 0 C2 6.6 2 13.2 2 20 C1.34 20 0.68 20 0 20 C0 16.04 0 12.08 0 8 C-0.66 8 -1.32 8 -2 8 C-1.48266848 5.2655334 -0.96347741 2.61515298 0 0 Z " fill="#000000" transform="translate(290,82)"/>
<path d="M0 0 C4.62 0 9.24 0 14 0 C14 0.66 14 1.32 14 2 C10.37 2.33 6.74 2.66 3 3 C3 4.32 3 5.64 3 7 C4.65 7.33 6.3 7.66 8 8 C8 8.66 8 9.32 8 10 C6.35 10.33 4.7 10.66 3 11 C3 12.98 3 14.96 3 17 C6.63 17.33 10.26 17.66 14 18 C14 18.66 14 19.32 14 20 C9.38 20 4.76 20 0 20 C0 13.4 0 6.8 0 0 Z " fill="#000000" transform="translate(298,82)"/>
<path d="M0 0 C4.62 0 9.24 0 14 0 C14 0.66 14 1.32 14 2 C10.37 2.33 6.74 2.66 3 3 C3 4.32 3 5.64 3 7 C4.27071376 7.0271649 5.541597 7.04647059 6.8125 7.0625 C7.52019531 7.07410156 8.22789062 7.08570312 8.95703125 7.09765625 C10.85800948 7.00678731 12.24562333 6.70285753 14 6 C14 7.32 14 8.64 14 10 C12.68 10 11.36 10 10 10 C10 10.66 10 11.32 10 12 C7.69 11.67 5.38 11.34 3 11 C2.67 13.97 2.34 16.94 2 20 C1.34 20 0.68 20 0 20 C0 13.4 0 6.8 0 0 Z " fill="#000000" transform="translate(314,82)"/>
<path d="M0 0 C0.66 0 1.32 0 2 0 C2 1.32 2 2.64 2 4 C1.34 4 0.68 4 0 4 C0 2.68 0 1.36 0 0 Z " fill="#000000" transform="translate(352,82)"/>
<path d="M0 0 C5.28 0 10.56 0 16 0 C16 0.66 16 1.32 16 2 C14.35 2.33 12.7 2.66 11 3 C10.67 8.61 10.34 14.22 10 20 C9.34 20 8.68 20 8 20 C7.67 14.39 7.34 8.78 7 3 C4.69 2.67 2.38 2.34 0 2 C0 1.34 0 0.68 0 0 Z " fill="#000000" transform="translate(970,82)"/>
<path d="M0 0 C4.62 0 9.24 0 14 0 C14 2.64 14 5.28 14 8 C13.34 8 12.68 8 12 8 C11.34 9.98 10.68 11.96 10 14 C9.34 14 8.68 14 8 14 C7.67 13.01 7.34 12.02 7 11 C5.68 11 4.36 11 3 11 C2.67 13.97 2.34 16.94 2 20 C1.34 20 0.68 20 0 20 C0 13.4 0 6.8 0 0 Z M3 2 C2.61781233 3.65614657 2.28604898 5.32457024 2 7 C3 8 3 8 5.06640625 8.09765625 C5.89011719 8.08605469 6.71382812 8.07445313 7.5625 8.0625 C7.97564453 8.05798828 7.97564453 8.05798828 10.06640625 8.03515625 C10.38544922 8.02935547 10.38544922 8.02935547 12 8 C12.042721 6.33388095 12.04063832 4.66617115 12 3 C11 2 11 2 9.15234375 1.90234375 C8.42144531 1.91394531 7.69054687 1.92554687 6.9375 1.9375 C6.57076172 1.94201172 6.57076172 1.94201172 4.71484375 1.96484375 C4.14894531 1.97644531 3.58304688 1.98804687 3 2 Z " fill="#000000" transform="translate(988,82)"/>
<path d="M0 0 C0.66 0 1.32 0 2 0 C2 1.32 2 2.64 2 4 C1.34 4 0.68 4 0 4 C0 2.68 0 1.36 0 0 Z " fill="#000000" transform="translate(1012,82)"/>
<path d="M0 0 C0.66 0.33 0.66 0.33 4 2 C4 3.32 4 4.64 4 6 C3.34 6 2.68 6 2 6 C2 10.62 2 15.24 2 20 C1.34 20 0.68 20 0 20 C0 13.4 0 6.8 0 0 Z " fill="#000000" transform="translate(1024,82)"/>
<path d="M0 0 C0.66 0 1.32 0 2 0 C2 6.6 2 13.2 2 20 C0.68 19.34 -0.64 18.68 -2 18 C-2 16.68 -2 15.36 -2 14 C-1.34 14 -0.68 14 0 14 C0 9.38 0 4.76 0 0 Z " fill="#000000" transform="translate(1036,82)"/>
<path d="M0 0 C3.3 0 6.6 0 10 0 C10 0.66 10 1.32 10 2 C6.7 2 3.4 2 0 2 C0 1.34 0 0.68 0 0 Z " fill="#000000" transform="translate(1044,82)"/>
<path d="M0 0 C4.62 0 9.24 0 14 0 C14 0.66 14 1.32 14 2 C10.37 2.33 6.74 2.66 3 3 C3 4.32 3 5.64 3 7 C5.31 7.33 7.62 7.66 10 8 C10 8.66 10 9.32 10 10 C7.69 10.33 5.38 10.66 3 11 C2.67 13.97 2.34 16.94 2 20 C1.34 20 0.68 20 0 20 C0 13.4 0 6.8 0 0 Z " fill="#000000" transform="translate(1060,82)"/>
<path d="M0 0 C2.64 0 5.28 0 8 0 C8 0.66 8 1.32 8 2 C5.36 2 2.72 2 0 2 C0 1.34 0 0.68 0 0 Z " fill="#000000" transform="translate(1080,82)"/>
<path d="M0 0 C4.62 0 9.24 0 14 0 C14 0.66 14 1.32 14 2 C10.37 2.33 6.74 2.66 3 3 C3 4.32 3 5.64 3 7 C4.27071376 7.0271649 5.541597 7.04647059 6.8125 7.0625 C7.52019531 7.07410156 8.22789063 7.08570312 8.95703125 7.09765625 C10.85800948 7.00678731 12.24562333 6.70285753 14 6 C13.48266848 8.7344666 12.96347741 11.38484702 12 14 C11.34 14 10.68 14 10 14 C9.67 13.01 9.34 12.02 9 11 C7.02 11 5.04 11 3 11 C2.67 13.97 2.34 16.94 2 20 C1.34 20 0.68 20 0 20 C0 13.4 0 6.8 0 0 Z " fill="#000000" transform="translate(1096,82)"/>
<path d="M0 0 C0.66 0 1.32 0 2 0 C4.16009009 3.5101464 4.18192509 5.99764799 4 10 C3.34 10 2.68 10 2 10 C2 13.3 2 16.6 2 20 C1.34 20 0.68 20 0 20 C0 13.4 0 6.8 0 0 Z " fill="#000000" transform="translate(1116,82)"/>
<path d="M0 0 C0.66 0 1.32 0 2 0 C2 6.6 2 13.2 2 20 C1.34 20 0.68 20 0 20 C0 16.04 0 12.08 0 8 C-0.66 8 -1.32 8 -2 8 C-1.48266848 5.2655334 -0.96347741 2.61515298 0 0 Z " fill="#000000" transform="translate(1130,82)"/>
<path d="M0 0 C4.62 0 9.24 0 14 0 C14 0.66 14 1.32 14 2 C10.37 2.33 6.74 2.66 3 3 C3 4.32 3 5.64 3 7 C4.65 7.33 6.3 7.66 8 8 C8 8.66 8 9.32 8 10 C6.35 10.33 4.7 10.66 3 11 C3 12.98 3 14.96 3 17 C6.63 17.33 10.26 17.66 14 18 C14 18.66 14 19.32 14 20 C9.38 20 4.76 20 0 20 C0 13.4 0 6.8 0 0 Z " fill="#000000" transform="translate(1138,82)"/>
<path d="M0 0 C4.62 0 9.24 0 14 0 C14 0.66 14 1.32 14 2 C10.37 2.33 6.74 2.66 3 3 C3 4.32 3 5.64 3 7 C4.27071376 7.0271649 5.541597 7.04647059 6.8125 7.0625 C7.52019531 7.07410156 8.22789063 7.08570312 8.95703125 7.09765625 C10.85800948 7.00678731 12.24562333 6.70285753 14 6 C14 7.32 14 8.64 14 10 C12.68 10 11.36 10 10 10 C10 10.66 10 11.32 10 12 C7.69 11.67 5.38 11.34 3 11 C2.67 13.97 2.34 16.94 2 20 C1.34 20 0.68 20 0 20 C0 13.4 0 6.8 0 0 Z " fill="#000000" transform="translate(1154,82)"/>
<path d="M0 0 C4.62 0 9.24 0 14 0 C14 2.64 14 5.28 14 8 C13.34 8 12.68 8 12 8 C12 8.66 12 9.32 12 10 C12.66 10 13.32 10 14 10 C14 12.64 14 15.28 14 18 C13.34 18 12.68 18 12 18 C12 18.66 12 19.32 12 20 C8.04 20 4.08 20 0 20 C0 13.4 0 6.8 0 0 Z M3 2 C2.61781233 3.65614657 2.28604898 5.32457024 2 7 C3 8 3 8 5.06640625 8.09765625 C5.89011719 8.08605469 6.71382812 8.07445313 7.5625 8.0625 C7.97564453 8.05798828 7.97564453 8.05798828 10.06640625 8.03515625 C10.38544922 8.02935547 10.38544922 8.02935547 12 8 C12.042721 6.33388095 12.04063832 4.66617115 12 3 C11 2 11 2 9.15234375 1.90234375 C8.42144531 1.91394531 7.69054688 1.92554687 6.9375 1.9375 C6.57076172 1.94201172 6.57076172 1.94201172 4.71484375 1.96484375 C4.14894531 1.97644531 3.58304688 1.98804687 3 2 Z M2 11 C1.8671875 12.375 1.8671875 12.375 1.875 14 C1.87242188 14.53625 1.86984375 15.0725 1.8671875 15.625 C2 17 2 17 3 18 C4.51928038 18.07179964 6.04167482 18.08392007 7.5625 18.0625 C7.97564453 18.05798828 7.97564453 18.05798828 10.06640625 18.03515625 C10.70449219 18.02355469 11.34257813 18.01195312 12 18 C12.22223194 15.25913944 12.34781139 13.56036279 10.875 11.1875 C8.37413703 9.60362012 4.34813195 8.65186805 2 11 Z " fill="#000000" transform="translate(1188,82)"/>
<path d="M0 0 C0.66 0 1.32 0 2 0 C2.66 1.98 3.32 3.96 4 6 C2.68 6 1.36 6 0 6 C0 4.02 0 2.04 0 0 Z " fill="#000000" transform="translate(202,84)"/>
<path d="M0 0 C0.66 0 1.32 0 2 0 C2 0.66 2 1.32 2 2 C1.34 2 0.68 2 0 2 C0 1.34 0 0.68 0 0 Z " fill="#000000" transform="translate(214,84)"/>
<path d="M0 0 C0.66 0 1.32 0 2 0 C2 1.32 2 2.64 2 4 C1.34 4 0.68 4 0 4 C0 2.68 0 1.36 0 0 Z " fill="#000000" transform="translate(238,84)"/>
<path d="M0 0 C0.66 0 1.32 0 2 0 C2 0.66 2 1.32 2 2 C1.34 2 0.68 2 0 2 C0 1.34 0 0.68 0 0 Z " fill="#000000" transform="translate(248,84)"/>
<path d="M0 0 C0.66 0 1.32 0 2 0 C2 1.32 2 2.64 2 4 C1.34 4 0.68 4 0 4 C0 2.68 0 1.36 0 0 Z " fill="#000000" transform="translate(270,84)"/>
<path d="M0 0 C0.66 0 1.32 0 2 0 C2 1.32 2 2.64 2 4 C1.34 4 0.68 4 0 4 C0 2.68 0 1.36 0 0 Z " fill="#000000" transform="translate(328,84)"/>
<path d="M0 0 C0.66 0 1.32 0 2 0 C2.66 1.98 3.32 3.96 4 6 C2.68 6 1.36 6 0 6 C0 4.02 0 2.04 0 0 Z " fill="#000000" transform="translate(1042,84)"/>
<path d="M0 0 C0.66 0 1.32 0 2 0 C2 0.66 2 1.32 2 2 C1.34 2 0.68 2 0 2 C0 1.34 0 0.68 0 0 Z " fill="#000000" transform="translate(1054,84)"/>
<path d="M0 0 C0.66 0 1.32 0 2 0 C2 1.32 2 2.64 2 4 C1.34 4 0.68 4 0 4 C0 2.68 0 1.36 0 0 Z " fill="#000000" transform="translate(1078,84)"/>
<path d="M0 0 C0.66 0 1.32 0 2 0 C2 0.66 2 1.32 2 2 C1.34 2 0.68 2 0 2 C0 1.34 0 0.68 0 0 Z " fill="#000000" transform="translate(1088,84)"/>
<path d="M0 0 C0.66 0 1.32 0 2 0 C2 1.32 2 2.64 2 4 C1.34 4 0.68 4 0 4 C0 2.68 0 1.36 0 0 Z " fill="#000000" transform="translate(1110,84)"/>
<path d="M0 0 C0.66 0 1.32 0 2 0 C2 1.32 2 2.64 2 4 C1.34 4 0.68 4 0 4 C0 2.68 0 1.36 0 0 Z " fill="#000000" transform="translate(1168,84)"/>
<path d="M0 0 C0.66 0 1.32 0 2 0 C2 1.32 2 2.64 2 4 C1.34 4 0.68 4 0 4 C0 2.68 0 1.36 0 0 Z " fill="#000000" transform="translate(170,86)"/>
<path d="M0 0 C0.66 0 1.32 0 2 0 C2 1.98 2 3.96 2 6 C1.34 6 0.68 6 0 6 C0 4.02 0 2.04 0 0 Z " fill="#000000" transform="translate(174,86)"/>
<path d="M0 0 C0.66 0 1.32 0 2 0 C2 3.96 2 7.92 2 12 C1.34 12 0.68 12 0 12 C0 8.04 0 4.08 0 0 Z " fill="#000000" transform="translate(250,86)"/>
<path d="M0 0 C0.66 0 1.32 0 2 0 C2 1.98 2 3.96 2 6 C1.34 6 0.68 6 0 6 C0 4.02 0 2.04 0 0 Z " fill="#000000" transform="translate(350,86)"/>
<path d="M0 0 C0.66 0 1.32 0 2 0 C2 1.32 2 2.64 2 4 C1.34 4 0.68 4 0 4 C0 2.68 0 1.36 0 0 Z " fill="#000000" transform="translate(354,86)"/>
<path d="M0 0 C0.66 0 1.32 0 2 0 C2 1.32 2 2.64 2 4 C1.34 4 0.68 4 0 4 C0 2.68 0 1.36 0 0 Z " fill="#000000" transform="translate(1010,86)"/>
<path d="M0 0 C0.66 0 1.32 0 2 0 C2 1.98 2 3.96 2 6 C1.34 6 0.68 6 0 6 C0 4.02 0 2.04 0 0 Z " fill="#000000" transform="translate(1014,86)"/>
<path d="M0 0 C0.66 0 1.32 0 2 0 C2 3.96 2 7.92 2 12 C1.34 12 0.68 12 0 12 C0 8.04 0 4.08 0 0 Z " fill="#000000" transform="translate(1090,86)"/>
<path d="M0 0 C0.66 0 1.32 0 2 0 C2 0.66 2 1.32 2 2 C1.34 2 0.68 2 0 2 C0 1.34 0 0.68 0 0 Z " fill="#000000" transform="translate(188,88)"/>
<path d="M0 0 C0.66 0 1.32 0 2 0 C2 2.64 2 5.28 2 8 C1.34 8 0.68 8 0 8 C0 5.36 0 2.72 0 0 Z " fill="#000000" transform="translate(236,88)"/>
<path d="M0 0 C0.66 0 1.32 0 2 0 C2 0.66 2 1.32 2 2 C1.34 2 0.68 2 0 2 C0 1.34 0 0.68 0 0 Z " fill="#000000" transform="translate(1028,88)"/>
<path d="M0 0 C0.66 0 1.32 0 2 0 C2 2.64 2 5.28 2 8 C1.34 8 0.68 8 0 8 C0 5.36 0 2.72 0 0 Z " fill="#000000" transform="translate(1076,88)"/>
<path d="M0 0 C0.66 0 1.32 0 2 0 C2.33 0.99 2.66 1.98 3 3 C4.65 3.33 6.3 3.66 8 4 C8 3.34 8 2.68 8 2 C8.66 2 9.32 2 10 2 C10 3.98 10 5.96 10 8 C9.38511719 7.91621094 8.77023438 7.83242187 8.13671875 7.74609375 C7.32847656 7.64425781 6.52023438 7.54242188 5.6875 7.4375 C4.88699219 7.33308594 4.08648437 7.22867188 3.26171875 7.12109375 C1.14192954 7.00759899 -0.08132811 7.16174529 -2 8 C-1.48266848 5.2655334 -0.96347741 2.61515298 0 0 Z " fill="#000000" transform="translate(168,90)"/>
<path d="M0 0 C0.66 0 1.32 0 2 0 C2 1.32 2 2.64 2 4 C1.34 4 0.68 4 0 4 C0 2.68 0 1.36 0 0 Z " fill="#000000" transform="translate(190,90)"/>
<path d="M0 0 C1.32 0 2.64 0 4 0 C4 0.66 4 1.32 4 2 C2.68 2 1.36 2 0 2 C0 1.34 0 0.68 0 0 Z " fill="#000000" transform="translate(206,90)"/>
<path d="M0 0 C0.66 0 1.32 0 2 0 C2 1.32 2 2.64 2 4 C1.34 4 0.68 4 0 4 C0 2.68 0 1.36 0 0 Z " fill="#000000" transform="translate(286,90)"/>
<path d="M0 0 C0.66 0 1.32 0 2 0 C2.33 0.99 2.66 1.98 3 3 C4.65 3.33 6.3 3.66 8 4 C8 3.34 8 2.68 8 2 C8.66 2 9.32 2 10 2 C10 3.98 10 5.96 10 8 C9.38511719 7.91621094 8.77023437 7.83242187 8.13671875 7.74609375 C7.32847656 7.64425781 6.52023437 7.54242188 5.6875 7.4375 C4.88699219 7.33308594 4.08648438 7.22867188 3.26171875 7.12109375 C1.14192954 7.00759899 -0.08132811 7.16174529 -2 8 C-1.48266848 5.2655334 -0.96347741 2.61515298 0 0 Z " fill="#000000" transform="translate(1008,90)"/>
<path d="M0 0 C0.66 0 1.32 0 2 0 C2 1.32 2 2.64 2 4 C1.34 4 0.68 4 0 4 C0 2.68 0 1.36 0 0 Z " fill="#000000" transform="translate(1030,90)"/>
<path d="M0 0 C1.32 0 2.64 0 4 0 C4 0.66 4 1.32 4 2 C2.68 2 1.36 2 0 2 C0 1.34 0 0.68 0 0 Z " fill="#000000" transform="translate(1046,90)"/>
<path d="M0 0 C0.66 0 1.32 0 2 0 C2 1.32 2 2.64 2 4 C1.34 4 0.68 4 0 4 C0 2.68 0 1.36 0 0 Z " fill="#000000" transform="translate(1126,90)"/>
<path d="M0 0 C1.98 0 3.96 0 6 0 C6 2.64 6 5.28 6 8 C5.34 8 4.68 8 4 8 C3.67 6.35 3.34 4.7 3 3 C2.01 2.67 1.02 2.34 0 2 C0 1.34 0 0.68 0 0 Z " fill="#000000" transform="translate(210,92)"/>
<path d="M0 0 C0.66 0 1.32 0 2 0 C2 1.98 2 3.96 2 6 C1.34 6 0.68 6 0 6 C0 4.02 0 2.04 0 0 Z " fill="#000000" transform="translate(280,92)"/>
<path d="M0 0 C0.66 0 1.32 0 2 0 C3.63549598 2.86211797 4.10996227 4.72862232 4 8 C3.38511719 7.91621094 2.77023437 7.83242187 2.13671875 7.74609375 C1.32847656 7.64425781 0.52023437 7.54242188 -0.3125 7.4375 C-1.11300781 7.33308594 -1.91351563 7.22867188 -2.73828125 7.12109375 C-4.85807046 7.00759899 -6.08132811 7.16174529 -8 8 C-8 6.02 -8 4.04 -8 2 C-7.34 2 -6.68 2 -6 2 C-6 2.66 -6 3.32 -6 4 C-4.35 3.67 -2.7 3.34 -1 3 C-0.67 2.01 -0.34 1.02 0 0 Z " fill="#000000" transform="translate(356,90)"/>
<path d="M0 0 C1.98 0 3.96 0 6 0 C6 2.64 6 5.28 6 8 C5.34 8 4.68 8 4 8 C3.67 6.35 3.34 4.7 3 3 C2.01 2.67 1.02 2.34 0 2 C0 1.34 0 0.68 0 0 Z " fill="#000000" transform="translate(1050,92)"/>
<path d="M0 0 C0.66 0 1.32 0 2 0 C2 1.98 2 3.96 2 6 C1.34 6 0.68 6 0 6 C0 4.02 0 2.04 0 0 Z " fill="#000000" transform="translate(1120,92)"/>
<path d="M0 0 C0.66 0 1.32 0 2 0 C2 0.66 2 1.32 2 2 C1.34 2 0.68 2 0 2 C0 1.34 0 0.68 0 0 Z " fill="#000000" transform="translate(192,94)"/>
<path d="M0 0 C0.66 0 1.32 0 2 0 C2 1.32 2 2.64 2 4 C1.34 4 0.68 4 0 4 C0 2.68 0 1.36 0 0 Z " fill="#000000" transform="translate(284,94)"/>
<path d="M0 0 C0.66 0 1.32 0 2 0 C2 1.32 2 2.64 2 4 C1.34 4 0.68 4 0 4 C0 2.68 0 1.36 0 0 Z " fill="#000000" transform="translate(324,94)"/>
<path d="M0 0 C0.66 0 1.32 0 2 0 C2 0.66 2 1.32 2 2 C1.34 2 0.68 2 0 2 C0 1.34 0 0.68 0 0 Z " fill="#000000" transform="translate(1032,94)"/>
<path d="M0 0 C0.66 0 1.32 0 2 0 C2 1.32 2 2.64 2 4 C1.34 4 0.68 4 0 4 C0 2.68 0 1.36 0 0 Z " fill="#000000" transform="translate(1124,94)"/>
<path d="M0 0 C0.66 0 1.32 0 2 0 C2 1.32 2 2.64 2 4 C1.34 4 0.68 4 0 4 C0 2.68 0 1.36 0 0 Z " fill="#000000" transform="translate(1164,94)"/>
<path d="M0 0 C0.66 0 1.32 0 2 0 C2 1.32 2 2.64 2 4 C1.34 4 0.68 4 0 4 C0 2.68 0 1.36 0 0 Z " fill="#000000" transform="translate(158,96)"/>
<path d="M0 0 C0.66 0 1.32 0 2 0 C2 1.32 2 2.64 2 4 C1.34 4 0.68 4 0 4 C0 2.68 0 1.36 0 0 Z " fill="#000000" transform="translate(238,96)"/>
<path d="M0 0 C0.66 0 1.32 0 2 0 C2 1.32 2 2.64 2 4 C1.34 4 0.68 4 0 4 C0 2.68 0 1.36 0 0 Z " fill="#000000" transform="translate(268,96)"/>
<path d="M0 0 C0.66 0 1.32 0 2 0 C2 1.32 2 2.64 2 4 C1.34 4 0.68 4 0 4 C0 2.68 0 1.36 0 0 Z " fill="#000000" transform="translate(998,96)"/>
<path d="M0 0 C0.66 0 1.32 0 2 0 C2 1.32 2 2.64 2 4 C1.34 4 0.68 4 0 4 C0 2.68 0 1.36 0 0 Z " fill="#000000" transform="translate(1078,96)"/>
<path d="M0 0 C0.66 0 1.32 0 2 0 C2 1.32 2 2.64 2 4 C1.34 4 0.68 4 0 4 C0 2.68 0 1.36 0 0 Z " fill="#000000" transform="translate(1108,96)"/>
<path d="M0 0 C0.66 0 1.32 0 2 0 C2 1.32 2 2.64 2 4 C1.34 4 0.68 4 0 4 C0 2.68 0 1.36 0 0 Z " fill="#000000" transform="translate(164,98)"/>
<path d="M0 0 C0.66 0 1.32 0 2 0 C2 1.32 2 2.64 2 4 C1.34 4 0.68 4 0 4 C0 2.68 0 1.36 0 0 Z " fill="#000000" transform="translate(178,98)"/>
<path d="M0 0 C0.66 0 1.32 0 2 0 C2 0.66 2 1.32 2 2 C1.34 2 0.68 2 0 2 C0 1.34 0 0.68 0 0 Z " fill="#000000" transform="translate(202,98)"/>
<path d="M0 0 C0.66 0 1.32 0 2 0 C2 0.66 2 1.32 2 2 C1.34 2 0.68 2 0 2 C0 1.34 0 0.68 0 0 Z " fill="#000000" transform="translate(248,98)"/>
<path d="M0 0 C0.66 0 1.32 0 2 0 C2 1.32 2 2.64 2 4 C1.34 4 0.68 4 0 4 C0 2.68 0 1.36 0 0 Z " fill="#000000" transform="translate(282,98)"/>
<path d="M0 0 C0.66 0.33 0.66 0.33 4 2 C4 2.66 4 3.32 4 4 C2.68 3.34 1.36 2.68 0 2 C0 1.34 0 0.68 0 0 Z " fill="#000000" transform="translate(326,98)"/>
<path d="M0 0 C0.66 0 1.32 0 2 0 C2 1.32 2 2.64 2 4 C1.34 4 0.68 4 0 4 C0 2.68 0 1.36 0 0 Z " fill="#000000" transform="translate(346,98)"/>
<path d="M0 0 C0.66 0 1.32 0 2 0 C2 1.32 2 2.64 2 4 C1.34 4 0.68 4 0 4 C0 2.68 0 1.36 0 0 Z " fill="#000000" transform="translate(360,98)"/>
<path d="M0 0 C0.66 0 1.32 0 2 0 C2 1.32 2 2.64 2 4 C1.34 4 0.68 4 0 4 C0 2.68 0 1.36 0 0 Z " fill="#000000" transform="translate(1004,98)"/>
<path d="M0 0 C0.66 0 1.32 0 2 0 C2 1.32 2 2.64 2 4 C1.34 4 0.68 4 0 4 C0 2.68 0 1.36 0 0 Z " fill="#000000" transform="translate(1018,98)"/>
<path d="M0 0 C0.66 0 1.32 0 2 0 C2 0.66 2 1.32 2 2 C1.34 2 0.68 2 0 2 C0 1.34 0 0.68 0 0 Z " fill="#000000" transform="translate(1042,98)"/>
<path d="M0 0 C0.66 0 1.32 0 2 0 C2 0.66 2 1.32 2 2 C1.34 2 0.68 2 0 2 C0 1.34 0 0.68 0 0 Z " fill="#000000" transform="translate(1088,98)"/>
<path d="M0 0 C0.66 0 1.32 0 2 0 C2 1.32 2 2.64 2 4 C1.34 4 0.68 4 0 4 C0 2.68 0 1.36 0 0 Z " fill="#000000" transform="translate(1122,98)"/>
<path d="M0 0 C0.66 0.33 0.66 0.33 4 2 C4 2.66 4 3.32 4 4 C2.68 3.34 1.36 2.68 0 2 C0 1.34 0 0.68 0 0 Z " fill="#000000" transform="translate(1166,98)"/>
<path d="M0 0 C0.66 0 1.32 0 2 0 C2 0.66 2 1.32 2 2 C1.34 2 0.68 2 0 2 C0 1.34 0 0.68 0 0 Z " fill="#000000" transform="translate(160,100)"/>
<path d="M0 0 C3.3 0 6.6 0 10 0 C10 0.66 10 1.32 10 2 C6.7 2 3.4 2 0 2 C0 1.34 0 0.68 0 0 Z " fill="#000000" transform="translate(204,100)"/>
<path d="M0 0 C2.64 0 5.28 0 8 0 C8 0.66 8 1.32 8 2 C5.36 2 2.72 2 0 2 C0 1.34 0 0.68 0 0 Z " fill="#000000" transform="translate(240,100)"/>
<path d="M0 0 C0.66 0 1.32 0 2 0 C2 0.66 2 1.32 2 2 C1.34 2 0.68 2 0 2 C0 1.34 0 0.68 0 0 Z " fill="#000000" transform="translate(270,100)"/>
<path d="M0 0 C0.66 0 1.32 0 2 0 C2 0.66 2 1.32 2 2 C1.34 2 0.68 2 0 2 C0 1.34 0 0.68 0 0 Z " fill="#000000" transform="translate(1000,100)"/>
<path d="M0 0 C3.3 0 6.6 0 10 0 C10 0.66 10 1.32 10 2 C6.7 2 3.4 2 0 2 C0 1.34 0 0.68 0 0 Z " fill="#000000" transform="translate(1044,100)"/>
<path d="M0 0 C2.64 0 5.28 0 8 0 C8 0.66 8 1.32 8 2 C5.36 2 2.72 2 0 2 C0 1.34 0 0.68 0 0 Z " fill="#000000" transform="translate(1080,100)"/>
<path d="M0 0 C0.66 0 1.32 0 2 0 C2 0.66 2 1.32 2 2 C1.34 2 0.68 2 0 2 C0 1.34 0 0.68 0 0 Z " fill="#000000" transform="translate(1110,100)"/>
<path d="M0 0 C106.26 0 212.52 0 322 0 C322 0.66 322 1.32 322 2 C322.66 2 323.32 2 324 2 C324 34.34 324 66.68 324 100 C493.62 100 663.24 100 838 100 C838 67.66 838 35.32 838 2 C838.66 2 839.32 2 840 2 C840 1.34 840 0.68 840 0 C946.26 0 1052.52 0 1162 0 C1162 0.66 1162 1.32 1162 2 C1162.66 2 1163.32 2 1164 2 C1164 68.66 1164 135.32 1164 204 C1163.34 204 1162.68 204 1162 204 C1162 204.66 1162 205.32 1162 206 C1109.86 206 1057.72 206 1004 206 C1004 324.14 1004 442.28 1004 564 C1003.34 564 1002.68 564 1002 564 C1002 564.66 1002 565.32 1002 566 C1000.68 566 999.36 566 998 566 C998 566.66 998 567.32 998 568 C996.02 568 994.04 568 992 568 C992 568.66 992 569.32 992 570 C990.68 570 989.36 570 988 570 C988 570.66 988 571.32 988 572 C986.02 572 984.04 572 982 572 C982 572.66 982 573.32 982 574 C980.68 574 979.36 574 978 574 C978 574.66 978 575.32 978 576 C976.02 576 974.04 576 972 576 C972 576.66 972 577.32 972 578 C970.02 578 968.04 578 966 578 C966 578.66 966 579.32 966 580 C964.68 580 963.36 580 962 580 C962 580.66 962 581.32 962 582 C960.02 582 958.04 582 956 582 C956 582.66 956 583.32 956 584 C954.68 584 953.36 584 952 584 C952 584.66 952 585.32 952 586 C950.02 586 948.04 586 946 586 C946 586.66 946 587.32 946 588 C944.02 588 942.04 588 940 588 C940 588.66 940 589.32 940 590 C938.68 590 937.36 590 936 590 C936 590.66 936 591.32 936 592 C934.02 592 932.04 592 930 592 C930 592.66 930 593.32 930 594 C928.68 594 927.36 594 926 594 C926 594.66 926 595.32 926 596 C924.02 596 922.04 596 920 596 C920 596.66 920 597.32 920 598 C918.02 598 916.04 598 914 598 C914 598.66 914 599.32 914 600 C912.68 600 911.36 600 910 600 C910 600.66 910 601.32 910 602 C908.02 602 906.04 602 904 602 C904 602.66 904 603.32 904 604 C902.68 604 901.36 604 900 604 C900 604.66 900 605.32 900 606 C898.02 606 896.04 606 894 606 C894 606.66 894 607.32 894 608 C892.02 608 890.04 608 888 608 C888 608.66 888 609.32 888 610 C886.68 610 885.36 610 884 610 C884 610.66 884 611.32 884 612 C882.02 612 880.04 612 878 612 C878 612.66 878 613.32 878 614 C876.68 614 875.36 614 874 614 C874 614.66 874 615.32 874 616 C872.02 616 870.04 616 868 616 C868 616.66 868 617.32 868 618 C866.02 618 864.04 618 862 618 C862 618.66 862 619.32 862 620 C860.68 620 859.36 620 858 620 C858 620.66 858 621.32 858 622 C856.02 622 854.04 622 852 622 C852 622.66 852 623.32 852 624 C850.68 624 849.36 624 848 624 C848 624.66 848 625.32 848 626 C846.02 626 844.04 626 842 626 C842 626.66 842 627.32 842 628 C840.02 628 838.04 628 836 628 C836 628.66 836 629.32 836 630 C834.68 630 833.36 630 832 630 C832 630.66 832 631.32 832 632 C830.02 632 828.04 632 826 632 C826 632.66 826 633.32 826 634 C824.68 634 823.36 634 822 634 C822 634.66 822 635.32 822 636 C820.02 636 818.04 636 816 636 C816 636.66 816 637.32 816 638 C814.02 638 812.04 638 810 638 C810 638.66 810 639.32 810 640 C808.68 640 807.36 640 806 640 C806 640.66 806 641.32 806 642 C804.02 642 802.04 642 800 642 C800 642.66 800 643.32 800 644 C798.68 644 797.36 644 796 644 C796 644.66 796 645.32 796 646 C794.02 646 792.04 646 790 646 C790 646.66 790 647.32 790 648 C788.02 648 786.04 648 784 648 C784 648.66 784 649.32 784 650 C782.68 650 781.36 650 780 650 C780 650.66 780 651.32 780 652 C778.02 652 776.04 652 774 652 C774 652.66 774 653.32 774 654 C772.68 654 771.36 654 770 654 C770 654.66 770 655.32 770 656 C768.02 656 766.04 656 764 656 C764 656.66 764 657.32 764 658 C762.02 658 760.04 658 758 658 C758 658.66 758 659.32 758 660 C756.68 660 755.36 660 754 660 C754 660.66 754 661.32 754 662 C752.02 662 750.04 662 748 662 C748 662.66 748 663.32 748 664 C746.68 664 745.36 664 744 664 C744 697 744 730 744 764 C743.34 764 742.68 764 742 764 C742 764.66 742 765.32 742 766 C635.74 766 529.48 766 420 766 C420 765.34 420 764.68 420 764 C419.34 764 418.68 764 418 764 C418 731 418 698 418 664 C416.68 664 415.36 664 414 664 C414 663.34 414 662.68 414 662 C412.02 662 410.04 662 408 662 C408 661.34 408 660.68 408 660 C406.68 660 405.36 660 404 660 C404 659.34 404 658.68 404 658 C402.02 658 400.04 658 398 658 C398 657.34 398 656.68 398 656 C396.02 656 394.04 656 392 656 C392 655.34 392 654.68 392 654 C390.68 654 389.36 654 388 654 C388 653.34 388 652.68 388 652 C386.02 652 384.04 652 382 652 C382 651.34 382 650.68 382 650 C380.68 650 379.36 650 378 650 C378 649.34 378 648.68 378 648 C376.02 648 374.04 648 372 648 C372 647.34 372 646.68 372 646 C370.02 646 368.04 646 366 646 C366 645.34 366 644.68 366 644 C364.68 644 363.36 644 362 644 C362 643.34 362 642.68 362 642 C360.02 642 358.04 642 356 642 C356 641.34 356 640.68 356 640 C354.68 640 353.36 640 352 640 C352 639.34 352 638.68 352 638 C350.02 638 348.04 638 346 638 C346 637.34 346 636.68 346 636 C344.02 636 342.04 636 340 636 C340 635.34 340 634.68 340 634 C338.68 634 337.36 634 336 634 C336 633.34 336 632.68 336 632 C334.02 632 332.04 632 330 632 C330 631.34 330 630.68 330 630 C328.68 630 327.36 630 326 630 C326 629.34 326 628.68 326 628 C324.02 628 322.04 628 320 628 C320 627.34 320 626.68 320 626 C318.02 626 316.04 626 314 626 C314 625.34 314 624.68 314 624 C312.68 624 311.36 624 310 624 C310 623.34 310 622.68 310 622 C308.02 622 306.04 622 304 622 C304 621.34 304 620.68 304 620 C302.68 620 301.36 620 300 620 C300 619.34 300 618.68 300 618 C298.02 618 296.04 618 294 618 C294 617.34 294 616.68 294 616 C292.02 616 290.04 616 288 616 C288 615.34 288 614.68 288 614 C286.68 614 285.36 614 284 614 C284 613.34 284 612.68 284 612 C282.02 612 280.04 612 278 612 C278 611.34 278 610.68 278 610 C276.68 610 275.36 610 274 610 C274 609.34 274 608.68 274 608 C272.02 608 270.04 608 268 608 C268 607.34 268 606.68 268 606 C266.02 606 264.04 606 262 606 C262 605.34 262 604.68 262 604 C260.68 604 259.36 604 258 604 C258 603.34 258 602.68 258 602 C256.02 602 254.04 602 252 602 C252 601.34 252 600.68 252 600 C250.68 600 249.36 600 248 600 C248 599.34 248 598.68 248 598 C246.02 598 244.04 598 242 598 C242 597.34 242 596.68 242 596 C240.02 596 238.04 596 236 596 C236 595.34 236 594.68 236 594 C234.68 594 233.36 594 232 594 C232 593.34 232 592.68 232 592 C230.02 592 228.04 592 226 592 C226 591.34 226 590.68 226 590 C224.68 590 223.36 590 222 590 C222 589.34 222 588.68 222 588 C220.02 588 218.04 588 216 588 C216 587.34 216 586.68 216 586 C214.02 586 212.04 586 210 586 C210 585.34 210 584.68 210 584 C208.68 584 207.36 584 206 584 C206 583.34 206 582.68 206 582 C204.02 582 202.04 582 200 582 C200 581.34 200 580.68 200 580 C198.68 580 197.36 580 196 580 C196 579.34 196 578.68 196 578 C194.02 578 192.04 578 190 578 C190 577.34 190 576.68 190 576 C188.02 576 186.04 576 184 576 C184 575.34 184 574.68 184 574 C182.68 574 181.36 574 180 574 C180 573.34 180 572.68 180 572 C178.02 572 176.04 572 174 572 C174 571.34 174 570.68 174 570 C172.68 570 171.36 570 170 570 C170 569.34 170 568.68 170 568 C168.02 568 166.04 568 164 568 C164 567.34 164 566.68 164 566 C162.68 566 161.36 566 160 566 C160 565.34 160 564.68 160 564 C159.34 564 158.68 564 158 564 C158 445.86 158 327.72 158 206 C105.86 206 53.72 206 0 206 C0 205.34 0 204.68 0 204 C-0.66 204 -1.32 204 -2 204 C-2 137.34 -2 70.68 -2 2 C-1.34 2 -0.68 2 0 2 C0 1.34 0 0.68 0 0 Z M4 6 C4 70.02 4 134.04 4 200 C107.62 200 211.24 200 318 200 C318 135.98 318 71.96 318 6 C214.38 6 110.76 6 4 6 Z M844 6 C844 70.02 844 134.04 844 200 C947.62 200 1051.24 200 1158 200 C1158 135.98 1158 71.96 1158 6 C1054.38 6 950.76 6 844 6 Z M324 106 C324 138.34 324 170.68 324 204 C323.34 204 322.68 204 322 204 C322 204.66 322 205.32 322 206 C269.86 206 217.72 206 164 206 C164 323.48 164 440.96 164 562 C165.32 562 166.64 562 168 562 C168 562.66 168 563.32 168 564 C169.98 564 171.96 564 174 564 C174 564.66 174 565.32 174 566 C175.32 566 176.64 566 178 566 C178 566.66 178 567.32 178 568 C179.98 568 181.96 568 184 568 C184 568.66 184 569.32 184 570 C185.98 570 187.96 570 190 570 C190 570.66 190 571.32 190 572 C191.32 572 192.64 572 194 572 C194 572.66 194 573.32 194 574 C195.98 574 197.96 574 200 574 C200 574.66 200 575.32 200 576 C201.32 576 202.64 576 204 576 C204 576.66 204 577.32 204 578 C205.98 578 207.96 578 210 578 C210 578.66 210 579.32 210 580 C211.98 580 213.96 580 216 580 C216 580.66 216 581.32 216 582 C217.32 582 218.64 582 220 582 C220 582.66 220 583.32 220 584 C221.98 584 223.96 584 226 584 C226 584.66 226 585.32 226 586 C227.32 586 228.64 586 230 586 C230 586.66 230 587.32 230 588 C231.98 588 233.96 588 236 588 C236 588.66 236 589.32 236 590 C237.98 590 239.96 590 242 590 C242 590.66 242 591.32 242 592 C243.32 592 244.64 592 246 592 C246 592.66 246 593.32 246 594 C247.98 594 249.96 594 252 594 C252 594.66 252 595.32 252 596 C253.32 596 254.64 596 256 596 C256 596.66 256 597.32 256 598 C257.98 598 259.96 598 262 598 C262 598.66 262 599.32 262 600 C263.98 600 265.96 600 268 600 C268 600.66 268 601.32 268 602 C269.32 602 270.64 602 272 602 C272 602.66 272 603.32 272 604 C273.98 604 275.96 604 278 604 C278 604.66 278 605.32 278 606 C279.32 606 280.64 606 282 606 C282 606.66 282 607.32 282 608 C283.98 608 285.96 608 288 608 C288 608.66 288 609.32 288 610 C289.98 610 291.96 610 294 610 C294 610.66 294 611.32 294 612 C295.32 612 296.64 612 298 612 C298 612.66 298 613.32 298 614 C299.98 614 301.96 614 304 614 C304 614.66 304 615.32 304 616 C305.32 616 306.64 616 308 616 C308 616.66 308 617.32 308 618 C309.98 618 311.96 618 314 618 C314 618.66 314 619.32 314 620 C315.98 620 317.96 620 320 620 C320 620.66 320 621.32 320 622 C321.32 622 322.64 622 324 622 C324 622.66 324 623.32 324 624 C325.98 624 327.96 624 330 624 C330 624.66 330 625.32 330 626 C331.32 626 332.64 626 334 626 C334 626.66 334 627.32 334 628 C335.98 628 337.96 628 340 628 C340 628.66 340 629.32 340 630 C341.98 630 343.96 630 346 630 C346 630.66 346 631.32 346 632 C347.32 632 348.64 632 350 632 C350 632.66 350 633.32 350 634 C351.98 634 353.96 634 356 634 C356 634.66 356 635.32 356 636 C357.32 636 358.64 636 360 636 C360 636.66 360 637.32 360 638 C361.98 638 363.96 638 366 638 C366 638.66 366 639.32 366 640 C367.98 640 369.96 640 372 640 C372 640.66 372 641.32 372 642 C373.32 642 374.64 642 376 642 C376 642.66 376 643.32 376 644 C377.98 644 379.96 644 382 644 C382 644.66 382 645.32 382 646 C383.32 646 384.64 646 386 646 C386 646.66 386 647.32 386 648 C387.98 648 389.96 648 392 648 C392 648.66 392 649.32 392 650 C393.98 650 395.96 650 398 650 C398 650.66 398 651.32 398 652 C399.32 652 400.64 652 402 652 C402 652.66 402 653.32 402 654 C403.98 654 405.96 654 408 654 C408 654.66 408 655.32 408 656 C409.32 656 410.64 656 412 656 C412 656.66 412 657.32 412 658 C413.98 658 415.96 658 418 658 C418 626.32 418 594.64 418 562 C418.66 562 419.32 562 420 562 C420 561.34 420 560.68 420 560 C526.26 560 632.52 560 742 560 C742 560.66 742 561.32 742 562 C742.66 562 743.32 562 744 562 C744 593.68 744 625.36 744 658 C745.98 658 747.96 658 750 658 C750 657.34 750 656.68 750 656 C751.32 656 752.64 656 754 656 C754 655.34 754 654.68 754 654 C755.98 654 757.96 654 760 654 C760 653.34 760 652.68 760 652 C761.32 652 762.64 652 764 652 C764 651.34 764 650.68 764 650 C765.98 650 767.96 650 770 650 C770 649.34 770 648.68 770 648 C771.98 648 773.96 648 776 648 C776 647.34 776 646.68 776 646 C777.32 646 778.64 646 780 646 C780 645.34 780 644.68 780 644 C781.98 644 783.96 644 786 644 C786 643.34 786 642.68 786 642 C787.32 642 788.64 642 790 642 C790 641.34 790 640.68 790 640 C791.98 640 793.96 640 796 640 C796 639.34 796 638.68 796 638 C797.98 638 799.96 638 802 638 C802 637.34 802 636.68 802 636 C803.32 636 804.64 636 806 636 C806 635.34 806 634.68 806 634 C807.98 634 809.96 634 812 634 C812 633.34 812 632.68 812 632 C813.32 632 814.64 632 816 632 C816 631.34 816 630.68 816 630 C817.98 630 819.96 630 822 630 C822 629.34 822 628.68 822 628 C823.98 628 825.96 628 828 628 C828 627.34 828 626.68 828 626 C829.32 626 830.64 626 832 626 C832 625.34 832 624.68 832 624 C833.98 624 835.96 624 838 624 C838 623.34 838 622.68 838 622 C839.32 622 840.64 622 842 622 C842 621.34 842 620.68 842 620 C843.98 620 845.96 620 848 620 C848 619.34 848 618.68 848 618 C849.98 618 851.96 618 854 618 C854 617.34 854 616.68 854 616 C855.32 616 856.64 616 858 616 C858 615.34 858 614.68 858 614 C859.98 614 861.96 614 864 614 C864 613.34 864 612.68 864 612 C865.32 612 866.64 612 868 612 C868 611.34 868 610.68 868 610 C869.98 610 871.96 610 874 610 C874 609.34 874 608.68 874 608 C875.98 608 877.96 608 880 608 C880 607.34 880 606.68 880 606 C881.32 606 882.64 606 884 606 C884 605.34 884 604.68 884 604 C885.98 604 887.96 604 890 604 C890 603.34 890 602.68 890 602 C891.32 602 892.64 602 894 602 C894 601.34 894 600.68 894 600 C895.98 600 897.96 600 900 600 C900 599.34 900 598.68 900 598 C901.98 598 903.96 598 906 598 C906 597.34 906 596.68 906 596 C907.32 596 908.64 596 910 596 C910 595.34 910 594.68 910 594 C911.98 594 913.96 594 916 594 C916 593.34 916 592.68 916 592 C917.32 592 918.64 592 920 592 C920 591.34 920 590.68 920 590 C921.98 590 923.96 590 926 590 C926 589.34 926 588.68 926 588 C927.98 588 929.96 588 932 588 C932 587.34 932 586.68 932 586 C933.32 586 934.64 586 936 586 C936 585.34 936 584.68 936 584 C937.98 584 939.96 584 942 584 C942 583.34 942 582.68 942 582 C943.32 582 944.64 582 946 582 C946 581.34 946 580.68 946 580 C947.98 580 949.96 580 952 580 C952 579.34 952 578.68 952 578 C953.98 578 955.96 578 958 578 C958 577.34 958 576.68 958 576 C959.32 576 960.64 576 962 576 C962 575.34 962 574.68 962 574 C963.98 574 965.96 574 968 574 C968 573.34 968 572.68 968 572 C969.32 572 970.64 572 972 572 C972 571.34 972 570.68 972 570 C973.98 570 975.96 570 978 570 C978 569.34 978 568.68 978 568 C979.98 568 981.96 568 984 568 C984 567.34 984 566.68 984 566 C985.32 566 986.64 566 988 566 C988 565.34 988 564.68 988 564 C989.98 564 991.96 564 994 564 C994 563.34 994 562.68 994 562 C995.32 562 996.64 562 998 562 C998 444.52 998 327.04 998 206 C945.86 206 893.72 206 840 206 C840 205.34 840 204.68 840 204 C839.34 204 838.68 204 838 204 C838 171.66 838 139.32 838 106 C668.38 106 498.76 106 324 106 Z M424 566 C424 630.02 424 694.04 424 760 C527.62 760 631.24 760 738 760 C738 695.98 738 631.96 738 566 C634.38 566 530.76 566 424 566 Z " fill="#000000" transform="translate(120,118)"/>
<path d="M0 0 C1.32 0.66 2.64 1.32 4 2 C4 12.56 4 23.12 4 34 C9.94 34 15.88 34 22 34 C22.66 35.32 23.32 36.64 24 38 C22 40 22 40 19.75341797 40.22705078 C18.84221191 40.21657715 17.93100586 40.20610352 16.9921875 40.1953125 C16.00605469 40.18886719 15.01992188 40.18242187 14.00390625 40.17578125 C12.96093402 40.1590701 11.91796527 40.1421402 10.875 40.125 C9.82422711 40.11496798 8.77344514 40.10584251 7.72265625 40.09765625 C5.14820908 40.07403747 2.57421788 40.04110149 0 40 C0 39.34 0 38.68 0 38 C-0.66 38 -1.32 38 -2 38 C-2.05062394 32.90971107 -2.08570113 27.81948682 -2.10986328 22.72900391 C-2.11993376 20.99655735 -2.13359089 19.26412784 -2.15087891 17.53173828 C-2.17508162 15.04455361 -2.18647239 12.55759325 -2.1953125 10.0703125 C-2.20563507 9.29317902 -2.21595764 8.51604553 -2.22659302 7.71536255 C-2.22674408 6.99476654 -2.22689514 6.27417053 -2.22705078 5.53173828 C-2.231492 4.89664337 -2.23593323 4.26154846 -2.24050903 3.60720825 C-2 2 -2 2 0 0 Z " fill="#000000" transform="translate(686,164)"/>
<path d="M0 0 C1.32 0.66 2.64 1.32 4 2 C4 13.88 4 25.76 4 38 C2.68 38.66 1.36 39.32 0 40 C-2 38 -2 38 -2.22705078 35.38623047 C-2.22673445 34.29649817 -2.21545398 33.20673369 -2.1953125 32.1171875 C-2.1924826 31.54292023 -2.18965271 30.96865295 -2.18673706 30.37698364 C-2.17554166 28.54277713 -2.15043971 26.70905892 -2.125 24.875 C-2.11496931 23.63151747 -2.10584361 22.38802728 -2.09765625 21.14453125 C-2.07560462 18.09616602 -2.0410804 15.0481658 -2 12 C-3.98 12 -5.96 12 -8 12 C-8.66 10.68 -9.32 9.36 -10 8 C-8 6 -8 6 -5.875 5.875 C-5.25625 5.91625 -4.6375 5.9575 -4 6 C-4 5.34 -4 4.68 -4 4 C-3.34 4 -2.68 4 -2 4 C-1.34 2.68 -0.68 1.36 0 0 Z " fill="#000000" transform="translate(724,164)"/>
<path d="M0 0 C1.32 0.66 2.64 1.32 4 2 C4 12.56 4 23.12 4 34 C9.94 34 15.88 34 22 34 C22 34.66 22 35.32 22 36 C22.66 36 23.32 36 24 36 C24 35.34 24 34.68 24 34 C24.66 34 25.32 34 26 34 C26 33.34 26 32.68 26 32 C26.66 32 27.32 32 28 32 C28 31.34 28 30.68 28 30 C28.66 30 29.32 30 30 30 C30 29.34 30 28.68 30 28 C30.66 28 31.32 28 32 28 C32 27.34 32 26.68 32 26 C32.66 26 33.32 26 34 26 C34 25.34 34 24.68 34 24 C34.66 24 35.32 24 36 24 C36 23.34 36 22.68 36 22 C36.66 22 37.32 22 38 22 C38 21.34 38 20.68 38 20 C38.66 20 39.32 20 40 20 C40 19.34 40 18.68 40 18 C40.66 18 41.32 18 42 18 C42 17.34 42 16.68 42 16 C42.66 16 43.32 16 44 16 C44 13.36 44 10.72 44 8 C43.34 8 42.68 8 42 8 C42 7.34 42 6.68 42 6 C39.36 6 36.72 6 34 6 C34 6.66 34 7.32 34 8 C33.34 8 32.68 8 32 8 C31.67 9.65 31.34 11.3 31 13 C29.66735985 13.04298839 28.33272157 13.0403855 27 13 C26 12 26 12 25.90234375 10.58984375 C25.93489583 9.05989583 25.96744792 7.52994792 26 6 C26.66 6 27.32 6 28 6 C28 5.34 28 4.68 28 4 C28.66 4 29.32 4 30 4 C30 3.34 30 2.68 30 2 C31.32 2 32.64 2 34 2 C34 1.34 34 0.68 34 0 C37.3 0 40.6 0 44 0 C44 0.66 44 1.32 44 2 C45.32 2 46.64 2 48 2 C48 3.32 48 4.64 48 6 C48.66 6 49.32 6 50 6 C50 9.96 50 13.92 50 18 C49.34 18 48.68 18 48 18 C48 18.66 48 19.32 48 20 C47.34 20 46.68 20 46 20 C46 21.32 46 22.64 46 24 C45.34 24 44.68 24 44 24 C44 24.66 44 25.32 44 26 C43.34 26 42.68 26 42 26 C42 26.66 42 27.32 42 28 C41.34 28 40.68 28 40 28 C40 28.66 40 29.32 40 30 C39.34 30 38.68 30 38 30 C38 30.66 38 31.32 38 32 C37.34 32 36.68 32 36 32 C36 32.66 36 33.32 36 34 C40.62 34 45.24 34 50 34 C50.66 35.32 51.32 36.64 52 38 C50 40 50 40 47.56982422 40.22705078 C46.56472302 40.22673469 45.55958664 40.2154683 44.5546875 40.1953125 C44.28974991 40.19389755 44.28974991 40.19389755 42.94900513 40.18673706 C41.25743986 40.1755462 39.56640508 40.15044549 37.875 40.125 C36.72787223 40.1149687 35.58073616 40.10584311 34.43359375 40.09765625 C31.62219159 40.07561072 28.81118572 40.04108996 26 40 C26 39.34 26 38.68 26 38 C24.68 38 23.36 38 22 38 C22 38.66 22 39.32 22 40 C14.74 40 7.48 40 0 40 C0 39.34 0 38.68 0 38 C-0.66 38 -1.32 38 -2 38 C-2.05062394 32.90971107 -2.08570113 27.81948682 -2.10986328 22.72900391 C-2.11993376 20.99655735 -2.13359089 19.26412784 -2.15087891 17.53173828 C-2.17508162 15.04455361 -2.18647239 12.55759325 -2.1953125 10.0703125 C-2.20563507 9.29317902 -2.21595764 8.51604553 -2.22659302 7.71536255 C-2.22674408 6.99476654 -2.22689514 6.27417053 -2.22705078 5.53173828 C-2.231492 4.89664337 -2.23593323 4.26154846 -2.24050903 3.60720825 C-2 2 -2 2 0 0 Z " fill="#000000" transform="translate(186,464)"/>
<path d="M0 0 C1.32 0.66 2.64 1.32 4 2 C4 12.56 4 23.12 4 34 C9.94 34 15.88 34 22 34 C22.66 35.32 23.32 36.64 24 38 C22 40 22 40 19.75341797 40.22705078 C18.84221191 40.21657715 17.93100586 40.20610352 16.9921875 40.1953125 C16.00605469 40.18886719 15.01992187 40.18242187 14.00390625 40.17578125 C12.96093402 40.1590701 11.91796527 40.1421402 10.875 40.125 C9.82422711 40.11496798 8.77344514 40.10584251 7.72265625 40.09765625 C5.14820908 40.07403747 2.57421788 40.04110149 0 40 C0 39.34 0 38.68 0 38 C-0.66 38 -1.32 38 -2 38 C-2.05062394 32.90971107 -2.08570113 27.81948682 -2.10986328 22.72900391 C-2.11993376 20.99655735 -2.13359089 19.26412784 -2.15087891 17.53173828 C-2.17508162 15.04455361 -2.18647239 12.55759325 -2.1953125 10.0703125 C-2.20563507 9.29317902 -2.21595764 8.51604553 -2.22659302 7.71536255 C-2.22674408 6.99476654 -2.22689514 6.27417053 -2.22705078 5.53173828 C-2.231492 4.89664337 -2.23593323 4.26154846 -2.24050903 3.60720825 C-2 2 -2 2 0 0 Z " fill="#000000" transform="translate(1186,464)"/>
<path d="M0 0 C0.74362793 0.01047363 1.48725586 0.02094727 2.25341797 0.03173828 C2.65625 0.03496094 2.65625 0.03496094 4.69482422 0.05126953 C5.11570312 0.05964844 5.11570312 0.05964844 7.24560547 0.10205078 C7.67035156 0.1065625 7.67035156 0.1065625 9.81982422 0.12939453 C11.92036585 0.15299612 14.02034577 0.18591885 16.12060547 0.22705078 C16.12060547 0.88705078 16.12060547 1.54705078 16.12060547 2.22705078 C16.78060547 2.22705078 17.44060547 2.22705078 18.12060547 2.22705078 C18.12060547 3.54705078 18.12060547 4.86705078 18.12060547 6.22705078 C17.46060547 6.22705078 16.80060547 6.22705078 16.12060547 6.22705078 C16.12060547 7.54705078 16.12060547 8.86705078 16.12060547 10.22705078 C15.46060547 10.22705078 14.80060547 10.22705078 14.12060547 10.22705078 C14.12060547 10.88705078 14.12060547 11.54705078 14.12060547 12.22705078 C13.46060547 12.22705078 12.80060547 12.22705078 12.12060547 12.22705078 C12.12060547 12.88705078 12.12060547 13.54705078 12.12060547 14.22705078 C13.44060547 14.22705078 14.76060547 14.22705078 16.12060547 14.22705078 C16.12060547 14.88705078 16.12060547 15.54705078 16.12060547 16.22705078 C16.78060547 16.22705078 17.44060547 16.22705078 18.12060547 16.22705078 C18.12060547 17.54705078 18.12060547 18.86705078 18.12060547 20.22705078 C18.78060547 20.22705078 19.44060547 20.22705078 20.12060547 20.22705078 C20.12060547 24.18705078 20.12060547 28.14705078 20.12060547 32.22705078 C19.46060547 32.22705078 18.80060547 32.22705078 18.12060547 32.22705078 C18.12060547 32.88705078 18.12060547 33.54705078 18.12060547 34.22705078 C17.46060547 34.22705078 16.80060547 34.22705078 16.12060547 34.22705078 C16.12060547 35.54705078 16.12060547 36.86705078 16.12060547 38.22705078 C14.80060547 38.22705078 13.48060547 38.22705078 12.12060547 38.22705078 C12.12060547 38.88705078 12.12060547 39.54705078 12.12060547 40.22705078 C8.16060547 40.22705078 4.20060547 40.22705078 0.12060547 40.22705078 C0.12060547 39.56705078 0.12060547 38.90705078 0.12060547 38.22705078 C-1.19939453 38.22705078 -2.51939453 38.22705078 -3.87939453 38.22705078 C-3.87939453 37.56705078 -3.87939453 36.90705078 -3.87939453 36.22705078 C-4.53939453 36.22705078 -5.19939453 36.22705078 -5.87939453 36.22705078 C-5.87939453 34.90705078 -5.87939453 33.58705078 -5.87939453 32.22705078 C-6.53939453 32.22705078 -7.19939453 32.22705078 -7.87939453 32.22705078 C-7.21939453 30.90705078 -6.55939453 29.58705078 -5.87939453 28.22705078 C-4.55939453 28.22705078 -3.23939453 28.22705078 -1.87939453 28.22705078 C-1.87939453 29.54705078 -1.87939453 30.86705078 -1.87939453 32.22705078 C-1.21939453 32.22705078 -0.55939453 32.22705078 0.12060547 32.22705078 C0.12060547 32.88705078 0.12060547 33.54705078 0.12060547 34.22705078 C3.42060547 34.22705078 6.72060547 34.22705078 10.12060547 34.22705078 C10.12060547 33.56705078 10.12060547 32.90705078 10.12060547 32.22705078 C10.78060547 32.22705078 11.44060547 32.22705078 12.12060547 32.22705078 C12.12060547 31.56705078 12.12060547 30.90705078 12.12060547 30.22705078 C12.78060547 30.22705078 13.44060547 30.22705078 14.12060547 30.22705078 C14.12060547 27.58705078 14.12060547 24.94705078 14.12060547 22.22705078 C13.46060547 22.22705078 12.80060547 22.22705078 12.12060547 22.22705078 C12.12060547 21.56705078 12.12060547 20.90705078 12.12060547 20.22705078 C10.14060547 20.22705078 8.16060547 20.22705078 6.12060547 20.22705078 C6.12060547 19.56705078 6.12060547 18.90705078 6.12060547 18.22705078 C5.46060547 18.22705078 4.80060547 18.22705078 4.12060547 18.22705078 C4.12060547 16.90705078 4.12060547 15.58705078 4.12060547 14.22705078 C4.78060547 14.22705078 5.44060547 14.22705078 6.12060547 14.22705078 C6.12060547 12.90705078 6.12060547 11.58705078 6.12060547 10.22705078 C6.78060547 10.22705078 7.44060547 10.22705078 8.12060547 10.22705078 C8.12060547 9.56705078 8.12060547 8.90705078 8.12060547 8.22705078 C8.78060547 8.22705078 9.44060547 8.22705078 10.12060547 8.22705078 C10.12060547 7.56705078 10.12060547 6.90705078 10.12060547 6.22705078 C6.16060547 6.22705078 2.20060547 6.22705078 -1.87939453 6.22705078 C-2.53939453 4.90705078 -3.19939453 3.58705078 -3.87939453 2.22705078 C-1.87939453 0.22705078 -1.87939453 0.22705078 0 0 Z " fill="#000000" transform="translate(1217.87939453125,463.77294921875)"/>
<path d="M0 0 C0.66 0 1.32 0 2 0 C4.16009009 3.5101464 4.18192509 5.99764799 4 10 C3.34 10 2.68 10 2 10 C2 13.3 2 16.6 2 20 C1.34 20 0.68 20 0 20 C0 13.4 0 6.8 0 0 Z " fill="#000000" transform="translate(604,642)"/>
<path d="M0 0 C0.66 0 1.32 0 2 0 C2 6.6 2 13.2 2 20 C1.34 20 0.68 20 0 20 C0 16.04 0 12.08 0 8 C-0.66 8 -1.32 8 -2 8 C-1.48266848 5.2655334 -0.96347741 2.61515298 0 0 Z " fill="#000000" transform="translate(618,642)"/>
<path d="M0 0 C0.66 0 1.32 0 2 0 C2 1.32 2 2.64 2 4 C1.34 4 0.68 4 0 4 C0 2.68 0 1.36 0 0 Z " fill="#000000" transform="translate(622,642)"/>
<path d="M0 0 C0.66 0 1.32 0 2 0 C2 1.32 2 2.64 2 4 C1.34 4 0.68 4 0 4 C0 2.68 0 1.36 0 0 Z " fill="#000000" transform="translate(636,642)"/>
<path d="M0 0 C4.62 0 9.24 0 14 0 C14 3.3 14 6.6 14 10 C12.68 10 11.36 10 10 10 C10 10.66 10 11.32 10 12 C7.69 12.33 5.38 12.66 3 13 C2.67 15.31 2.34 17.62 2 20 C1.34 20 0.68 20 0 20 C0 13.4 0 6.8 0 0 Z M2 3 C1.8671875 4.375 1.8671875 4.375 1.875 6 C1.87242187 6.53625 1.86984375 7.0725 1.8671875 7.625 C2 9 2 9 3 10 C5.35933484 10.30748223 7.64072187 10.30531835 10 10 C11.5 8.8125 11.5 8.8125 12 7 C11.625 4.3125 11.625 4.3125 11 2 C9.68761043 1.97309452 8.37506601 1.95364756 7.0625 1.9375 C6.69705078 1.93169922 6.69705078 1.93169922 4.84765625 1.90234375 C3 2 3 2 2 3 Z " fill="#000000" transform="translate(656,642)"/>
<path d="M0 0 C0.66 0 1.32 0 2 0 C2 1.32 2 2.64 2 4 C1.34 4 0.68 4 0 4 C0 2.68 0 1.36 0 0 Z " fill="#000000" transform="translate(680,642)"/>
<path d="M0 0 C0.66 0.33 0.66 0.33 4 2 C4 2.66 4 3.32 4 4 C3.34 4 2.68 4 2 4 C2 9.28 2 14.56 2 20 C1.34 20 0.68 20 0 20 C0 13.4 0 6.8 0 0 Z " fill="#000000" transform="translate(690,642)"/>
<path d="M0 0 C0.66 0 1.32 0 2 0 C2 6.6 2 13.2 2 20 C0.68 19.34 -0.64 18.68 -2 18 C-2 17.34 -2 16.68 -2 16 C-1.34 16 -0.68 16 0 16 C0 10.72 0 5.44 0 0 Z " fill="#000000" transform="translate(704,642)"/>
<path d="M0 0 C4.62 0 9.24 0 14 0 C14 0.66 14 1.32 14 2 C10.37 2.33 6.74 2.66 3 3 C3 4.32 3 5.64 3 7 C5.31 7.33 7.62 7.66 10 8 C10 8.66 10 9.32 10 10 C7.69 10.33 5.38 10.66 3 11 C3 12.98 3 14.96 3 17 C6.63 17.33 10.26 17.66 14 18 C14 18.66 14 19.32 14 20 C9.38 20 4.76 20 0 20 C0 13.4 0 6.8 0 0 Z " fill="#000000" transform="translate(710,642)"/>
<path d="M0 0 C0.66 0 1.32 0 2 0 C2.33 5.61 2.66 11.22 3 17 C5.97 17.33 8.94 17.66 12 18 C12 18.66 12 19.32 12 20 C8.04 20 4.08 20 0 20 C0 13.4 0 6.8 0 0 Z " fill="#000000" transform="translate(728,642)"/>
<path d="M0 0 C0.66 0 1.32 0 2 0 C2 1.32 2 2.64 2 4 C1.34 4 0.68 4 0 4 C0 2.68 0 1.36 0 0 Z " fill="#000000" transform="translate(624,646)"/>
<path d="M0 0 C0.66 0 1.32 0 2 0 C2 1.98 2 3.96 2 6 C1.34 6 0.68 6 0 6 C0 4.02 0 2.04 0 0 Z " fill="#000000" transform="translate(634,646)"/>
<path d="M0 0 C0.66 0 1.32 0 2 0 C2 1.32 2 2.64 2 4 C1.34 4 0.68 4 0 4 C0 2.68 0 1.36 0 0 Z " fill="#000000" transform="translate(678,646)"/>
<path d="M0 0 C0.66 0 1.32 0 2 0 C2 1.98 2 3.96 2 6 C1.34 6 0.68 6 0 6 C0 4.02 0 2.04 0 0 Z " fill="#000000" transform="translate(682,646)"/>
<path d="M0 0 C0.66 0 1.32 0 2 0 C2 1.32 2 2.64 2 4 C1.34 4 0.68 4 0 4 C0 2.68 0 1.36 0 0 Z " fill="#000000" transform="translate(694,646)"/>
<path d="M0 0 C0.66 0 1.32 0 2 0 C2 1.32 2 2.64 2 4 C1.34 4 0.68 4 0 4 C0 2.68 0 1.36 0 0 Z " fill="#000000" transform="translate(614,650)"/>
<path d="M0 0 C0.66 0 1.32 0 2 0 C2 1.32 2 2.64 2 4 C1.34 4 0.68 4 0 4 C0 2.68 0 1.36 0 0 Z " fill="#000000" transform="translate(626,650)"/>
<path d="M0 0 C0.66 0 1.32 0 2 0 C2.33 0.99 2.66 1.98 3 3 C4.65 3.33 6.3 3.66 8 4 C8 3.34 8 2.68 8 2 C8.66 2 9.32 2 10 2 C10 3.98 10 5.96 10 8 C9.38511719 7.91621094 8.77023437 7.83242188 8.13671875 7.74609375 C7.32847656 7.64425781 6.52023437 7.54242187 5.6875 7.4375 C4.88699219 7.33308594 4.08648438 7.22867188 3.26171875 7.12109375 C1.14192954 7.00759899 -0.08132811 7.16174529 -2 8 C-1.48266848 5.2655334 -0.96347741 2.61515298 0 0 Z " fill="#000000" transform="translate(676,650)"/>
<path d="M0 0 C0.66 0.33 0.66 0.33 4 2 C4 2.66 4 3.32 4 4 C2.68 3.34 1.36 2.68 0 2 C0 1.34 0 0.68 0 0 Z " fill="#000000" transform="translate(696,650)"/>
<path d="M0 0 C0.66 0 1.32 0 2 0 C2 1.98 2 3.96 2 6 C1.34 6 0.68 6 0 6 C0 4.02 0 2.04 0 0 Z " fill="#000000" transform="translate(608,652)"/>
<path d="M0 0 C0.66 0 1.32 0 2 0 C2 1.98 2 3.96 2 6 C1.34 6 0.68 6 0 6 C0 4.02 0 2.04 0 0 Z " fill="#000000" transform="translate(632,652)"/>
<path d="M0 0 C0.66 0 1.32 0 2 0 C2 1.32 2 2.64 2 4 C1.34 4 0.68 4 0 4 C0 2.68 0 1.36 0 0 Z " fill="#000000" transform="translate(612,654)"/>
<path d="M0 0 C0.66 0 1.32 0 2 0 C2 1.32 2 2.64 2 4 C1.34 4 0.68 4 0 4 C0 2.68 0 1.36 0 0 Z " fill="#000000" transform="translate(628,654)"/>
<path d="M0 0 C0.66 0 1.32 0 2 0 C2 1.32 2 2.64 2 4 C1.34 4 0.68 4 0 4 C0 2.68 0 1.36 0 0 Z " fill="#000000" transform="translate(700,654)"/>
<path d="M0 0 C0.66 0 1.32 0 2 0 C2 1.32 2 2.64 2 4 C1.34 4 0.68 4 0 4 C0 2.68 0 1.36 0 0 Z " fill="#000000" transform="translate(610,658)"/>
<path d="M0 0 C0.66 0 1.32 0 2 0 C2 1.32 2 2.64 2 4 C1.34 4 0.68 4 0 4 C0 2.68 0 1.36 0 0 Z " fill="#000000" transform="translate(630,658)"/>
<path d="M0 0 C0.66 0 1.32 0 2 0 C2 1.32 2 2.64 2 4 C1.34 4 0.68 4 0 4 C0 2.68 0 1.36 0 0 Z " fill="#000000" transform="translate(672,658)"/>
<path d="M0 0 C0.66 0 1.32 0 2 0 C2 1.32 2 2.64 2 4 C1.34 4 0.68 4 0 4 C0 2.68 0 1.36 0 0 Z " fill="#000000" transform="translate(686,658)"/>
</svg>
